<svg xmlns="http://www.w3.org/2000/svg" xmlns:xlink="http://www.w3.org/1999/xlink"><defs><style>.cls-1{fill:#006cb2}</style><path id="a" d="M633.3 57.94a.98.98 0 0 1-.1.35l-5.14 9.36a.62.62 0 0 1-1.12 0l-5.15-9.38a.74.74 0 0 1-.08-.33 7.1 7.1 0 0 1-.71-3.1c0-3.77 2.91-6.84 6.5-6.84s6.5 3.07 6.5 6.85a7.1 7.1 0 0 1-.7 3.09zm-8.08-3.47c0 1.33 1.02 2.4 2.28 2.4a2.35 2.35 0 0 0 2.28-2.4c0-1.33-1.02-2.4-2.28-2.4a2.35 2.35 0 0 0-2.28 2.4z"/></defs><symbol id="icon-list-circle" viewBox="0 0 25 25"><title>list-circle</title><g id="&#x421;&#x43B;&#x43E;&#x439;_2" data-name="&#x421;&#x43B;&#x43E;&#x439; 2"><g id="&#x421;&#x43B;&#x43E;&#x439;_1-2" data-name="&#x421;&#x43B;&#x43E;&#x439; 1"><path class="cls-1" d="M12.5 22.26a.5.5 0 1 0 0 1 10.75 10.75 0 0 0 10.42-8.1.5.5 0 1 0-1-.24 9.75 9.75 0 0 1-9.42 7.34z"/><path class="cls-1" d="M8.58 18.16a1.73 1.73 0 0 0 2.45 0L19.6 9.6a1.75 1.75 0 0 0-2.47-2.47l-7.32 7.33-2.4-2.4a1.75 1.75 0 0 0-2.47 2.47zm-2.93-5.39a.74.74 0 0 1 1 0l2.76 2.75a.5.5 0 0 0 .7 0l7.69-7.68a.75.75 0 0 1 1 0 .73.73 0 0 1 0 1.05l-8.56 8.57a.74.74 0 0 1-1 0l-3.59-3.64a.73.73 0 0 1 0-1.05z"/><path class="cls-1" d="M12.5 25a12.5 12.5 0 0 0 8.84-21.34A12.5 12.5 0 0 0 3.66 21.34 12.42 12.42 0 0 0 12.5 25zm0-24A11.5 11.5 0 1 1 1 12.5 11.51 11.51 0 0 1 12.5 1z"/></g></g></symbol><symbol id="icon-loc" viewBox="0 0 16 24"><use xlink:href="#a" transform="translate(-619 -46)"/></symbol></svg>