<svg xmlns="http://www.w3.org/2000/svg" xmlns:xlink="http://www.w3.org/1999/xlink"><defs><path id="a" d="M633.3 57.94a.98.98 0 0 1-.1.35l-5.14 9.36a.62.62 0 0 1-1.12 0l-5.15-9.38a.74.74 0 0 1-.08-.33 7.1 7.1 0 0 1-.71-3.1c0-3.77 2.91-6.84 6.5-6.84s6.5 3.07 6.5 6.85a7.1 7.1 0 0 1-.7 3.09zm-8.08-3.47c0 1.33 1.02 2.4 2.28 2.4a2.35 2.35 0 0 0 2.28-2.4c0-1.33-1.02-2.4-2.28-2.4a2.35 2.35 0 0 0-2.28 2.4z"/></defs><symbol id="icon-arr_right" viewBox="0 0 80 64.5"><path d="M4 36.2h62.4L45 57.7c-1.6 1.6-1.6 4.1 0 5.7 1.6 1.6 4.1 1.6 5.7 0L78.9 35c.2-.2.4-.4.5-.6.1-.1.1-.2.1-.3.1-.1.1-.3.2-.4 0-.1.1-.3.1-.4 0-.1.1-.2.1-.4.1-.2.1-.5.1-.8 0-.3-.1-.5-.1-.8 0-.1-.1-.2-.1-.4s-.1-.2-.1-.4c0-.1-.1-.3-.2-.4-.1-.1-.1-.2-.1-.3l-.6-.6-28.2-28c-1.6-1.6-4.1-1.6-5.7 0s-1.6 4.1 0 5.7l21.4 21.4H4c-2.3 0-4 1.8-4 4s1.8 4 4 3.9z"/></symbol><symbol id="icon-loc" viewBox="0 0 16 24"><use xlink:href="#a" transform="translate(-619 -46)"/></symbol></svg>