<svg xmlns="http://www.w3.org/2000/svg" xmlns:xlink="http://www.w3.org/1999/xlink"><defs><style>.cls-1{fill:#006cb2}</style><path id="a" d="M633.3 57.94a.98.98 0 0 1-.1.35l-5.14 9.36a.62.62 0 0 1-1.12 0l-5.15-9.38a.74.74 0 0 1-.08-.33 7.1 7.1 0 0 1-.71-3.1c0-3.77 2.91-6.84 6.5-6.84s6.5 3.07 6.5 6.85a7.1 7.1 0 0 1-.7 3.09zm-8.08-3.47c0 1.33 1.02 2.4 2.28 2.4a2.35 2.35 0 0 0 2.28-2.4c0-1.33-1.02-2.4-2.28-2.4a2.35 2.35 0 0 0-2.28 2.4z"/><style>.cls-1{fill:#28b463}</style><style>.cls-1{fill:#28b463}</style></defs><symbol id="icon-facebook" viewBox="0 0 155.139 155.139"><path d="M89.584 155.139V84.378h23.742l3.562-27.585H89.584V39.184c0-7.984 2.208-13.425 13.67-13.425l14.595-.006V1.08C115.325.752 106.661 0 96.577 0 75.52 0 61.104 12.853 61.104 36.452v20.341H37.29v27.585h23.814v70.761h28.48z"/></symbol><symbol id="icon-instagram" viewBox="0 0 16 16"><path d="M8 0C5.827 0 5.555.01 4.702.048 3.85.088 3.27.222 2.76.42a3.908 3.908 0 0 0-1.417.923c-.445.444-.72.89-.923 1.417-.198.51-.333 1.09-.372 1.942C.008 5.555 0 5.827 0 8s.01 2.445.048 3.298c.04.852.174 1.433.372 1.942.204.526.478.973.923 1.417.444.445.89.72 1.417.923.51.198 1.09.333 1.942.372.853.04 1.125.048 3.298.048s2.445-.01 3.298-.048c.852-.04 1.433-.174 1.942-.372a3.908 3.908 0 0 0 1.417-.923c.445-.444.72-.89.923-1.417.198-.51.333-1.09.372-1.942.04-.853.048-1.125.048-3.298s-.01-2.445-.048-3.298c-.04-.852-.174-1.433-.372-1.942a3.908 3.908 0 0 0-.923-1.417A3.886 3.886 0 0 0 13.24.42c-.51-.198-1.09-.333-1.942-.372C10.445.008 10.173 0 8 0zm0 1.44c2.136 0 2.39.01 3.233.048.78.036 1.203.166 1.485.276.374.145.64.318.92.598.28.28.453.546.598.92.11.282.24.705.276 1.485.038.844.047 1.097.047 3.233s-.01 2.39-.05 3.233c-.04.78-.17 1.203-.28 1.485-.15.374-.32.64-.6.92-.28.28-.55.453-.92.598-.28.11-.71.24-1.49.276-.85.038-1.1.047-3.24.047s-2.39-.01-3.24-.05c-.78-.04-1.21-.17-1.49-.28a2.49 2.49 0 0 1-.92-.6c-.28-.28-.46-.55-.6-.92-.11-.28-.24-.71-.28-1.49-.03-.84-.04-1.1-.04-3.23s.01-2.39.04-3.24c.04-.78.17-1.21.28-1.49.14-.38.32-.64.6-.92.28-.28.54-.46.92-.6.28-.11.7-.24 1.48-.28.85-.03 1.1-.04 3.24-.04zm0 2.452a4.108 4.108 0 1 0 0 8.215 4.108 4.108 0 0 0 0-8.215zm0 6.775a2.667 2.667 0 1 1 0-5.334 2.667 2.667 0 0 1 0 5.334zm5.23-6.937a.96.96 0 1 1-1.92 0 .96.96 0 0 1 1.92 0z"/></symbol><symbol id="icon-list-circle" viewBox="0 0 25 25"><title>list-circle</title><g id="&#x421;&#x43B;&#x43E;&#x439;_2" data-name="&#x421;&#x43B;&#x43E;&#x439; 2"><g id="&#x421;&#x43B;&#x43E;&#x439;_1-2" data-name="&#x421;&#x43B;&#x43E;&#x439; 1"><path class="cls-1" d="M12.5 22.26a.5.5 0 1 0 0 1 10.75 10.75 0 0 0 10.42-8.1.5.5 0 1 0-1-.24 9.75 9.75 0 0 1-9.42 7.34z"/><path class="cls-1" d="M8.58 18.16a1.73 1.73 0 0 0 2.45 0L19.6 9.6a1.75 1.75 0 0 0-2.47-2.47l-7.32 7.33-2.4-2.4a1.75 1.75 0 0 0-2.47 2.47zm-2.93-5.39a.74.74 0 0 1 1 0l2.76 2.75a.5.5 0 0 0 .7 0l7.69-7.68a.75.75 0 0 1 1 0 .73.73 0 0 1 0 1.05l-8.56 8.57a.74.74 0 0 1-1 0l-3.59-3.64a.73.73 0 0 1 0-1.05z"/><path class="cls-1" d="M12.5 25a12.5 12.5 0 0 0 8.84-21.34A12.5 12.5 0 0 0 3.66 21.34 12.42 12.42 0 0 0 12.5 25zm0-24A11.5 11.5 0 1 1 1 12.5 11.51 11.51 0 0 1 12.5 1z"/></g></g></symbol><symbol id="icon-loc" viewBox="0 0 16 24"><use xlink:href="#a" transform="translate(-619 -46)"/></symbol><symbol id="icon-quote-l" viewBox="0 0 19.65 12.75"><title>quote-l</title><g id="&#x421;&#x43B;&#x43E;&#x439;_2" data-name="&#x421;&#x43B;&#x43E;&#x439; 2"><g id="&#x421;&#x43B;&#x43E;&#x439;_1-2" data-name="&#x421;&#x43B;&#x43E;&#x439; 1"><path class="cls-1" d="M4.45 0L0 12.75h7.35L10.05 0h-5.6z"/><path class="cls-1" d="M9.6 12.75h7.35L19.65 0h-5.6L9.6 12.75z"/></g></g></symbol><symbol id="icon-quote-r" viewBox="0 0 19.65 12.75"><title>quote-r</title><g id="&#x421;&#x43B;&#x43E;&#x439;_2" data-name="&#x421;&#x43B;&#x43E;&#x439; 2"><g id="&#x421;&#x43B;&#x43E;&#x439;_1-2" data-name="&#x421;&#x43B;&#x43E;&#x439; 1"><path class="cls-1" d="M2.7 0L0 12.75h5.6L10.05 0H2.7z"/><path class="cls-1" d="M12.3 0L9.6 12.75h5.6L19.65 0H12.3z"/></g></g></symbol><symbol id="icon-vk" viewBox="0 0 16 16"><path d="M7.828 12.526h.957s.288-.032.436-.19c.14-.147.14-.42.14-.42s-.02-1.284.58-1.473c.59-.187 1.34 1.24 2.14 1.788.61.42 1.07.33 1.07.33l2.14-.03s1.12-.07.59-.95c-.04-.07-.3-.65-1.58-1.84-1.34-1.24-1.16-1.04.45-3.19.98-1.31 1.38-2.11 1.25-2.45-.11-.32-.84-.24-.84-.24l-2.4.02s-.18-.02-.31.06-.21.26-.21.26-.38 1.02-.89 1.88C10.27 7.9 9.84 8 9.67 7.88c-.403-.26-.3-1.053-.3-1.62 0-1.76.27-2.5-.52-2.69-.26-.06-.454-.1-1.123-.11-.86-.01-1.585.006-1.996.207-.27.135-.48.434-.36.45.16.02.52.098.71.358.25.337.24 1.09.24 1.09s.14 2.077-.33 2.335c-.33.174-.77-.187-1.73-1.837-.49-.84-.86-1.78-.86-1.78s-.07-.17-.2-.27c-.15-.11-.37-.15-.37-.15l-2.29.02s-.34.01-.46.16c-.11.13-.01.41-.01.41s1.79 4.19 3.82 6.3c1.86 1.935 3.97 1.81 3.97 1.81z"/></symbol></svg>