<?xml version="1.0" encoding="utf-8"?>
<!-- Generator: Adobe Illustrator 21.1.0, SVG Export Plug-In . SVG Version: 6.00 Build 0)  -->
<svg version="1.1" id="Слой_1" xmlns="http://www.w3.org/2000/svg" xmlns:xlink="http://www.w3.org/1999/xlink" x="0px" y="0px"
	 viewBox="0 0 80 64.5" enable-background="new 0 0 80 64.5" xml:space="preserve">
<path d="M4,36.2l62.4,0L45,57.7c-1.6,1.6-1.6,4.1,0,5.7c1.6,1.6,4.1,1.6,5.7,0L78.9,35l0,0c0.2-0.2,0.4-0.4,0.5-0.6
	c0.1-0.1,0.1-0.2,0.1-0.3c0.1-0.1,0.1-0.3,0.2-0.4c0-0.1,0.1-0.3,0.1-0.4c0-0.1,0.1-0.2,0.1-0.4c0.1-0.2,0.1-0.5,0.1-0.8l0,0l0,0
	c0-0.3-0.1-0.5-0.1-0.8c0-0.1-0.1-0.2-0.1-0.4s-0.1-0.2-0.1-0.4c0-0.1-0.1-0.3-0.2-0.4c-0.1-0.1-0.1-0.2-0.1-0.3
	c-0.2-0.2-0.4-0.4-0.6-0.6L50.6,1.2c-1.6-1.6-4.1-1.6-5.7,0s-1.6,4.1,0,5.7l21.4,21.4L4,28.3c-2.3,0-4,1.8-4,4
	C0,34.5,1.8,36.3,4,36.2z"/>
</svg>
