<svg xmlns="http://www.w3.org/2000/svg" viewBox="0 0 25 25"><defs><style>.cls-1{fill:#006cb2;}</style></defs><title>list-circle</title><g id="Слой_2" data-name="Слой 2"><g id="Слой_1-2" data-name="Слой 1"><path class="cls-1" d="M12.5,22.26a.5.5,0,1,0,0,1,10.75,10.75,0,0,0,10.42-8.1h0a.5.5,0,1,0-1-.24A9.75,9.75,0,0,1,12.5,22.26Z"/><path class="cls-1" d="M8.58,18.16h0a1.73,1.73,0,0,0,2.45,0L19.6,9.6h0a1.75,1.75,0,0,0-2.47-2.47L9.81,14.46l-2.4-2.4a1.75,1.75,0,0,0-2.47,2.47ZM5.65,12.77h0a.74.74,0,0,1,1,0l2.76,2.75a.5.5,0,0,0,.7,0l7.69-7.68a.75.75,0,0,1,1,0h0a.73.73,0,0,1,0,1.05l-8.56,8.57h0a.74.74,0,0,1-1,0L5.65,13.82A.73.73,0,0,1,5.65,12.77Z"/><path class="cls-1" d="M12.5,25A12.5,12.5,0,0,0,21.34,3.66,12.5,12.5,0,0,0,3.66,21.34,12.42,12.42,0,0,0,12.5,25Zm0-24A11.5,11.5,0,1,1,1,12.5,11.51,11.51,0,0,1,12.5,1Z"/></g></g></svg>